# xmcd
#
# Track frame offsets: 
#        150
#        15516
#        31960
#        52831
#        68678
#        81332
#        96185
#        113022
#        122044
#        135524
#        149502
#        161017
#
# Disc length: 2432 seconds
#
# Revision: 0
# Processed by: cddbd v1.5.2PL0 Copyright (c) Steve Scherf et al.
# Submitted via: ExactAudioCopyFreeDBPlugin 1.0
#
DISCID=98097e0c
DTITLE=Kris Kristofferson - The Cedar Creek Sessions - CD2
DYEAR=2016
DGENRE=Country
TTITLE0=Darby's Castle
TTITLE1=Me and Bobby McGee
TTITLE2=Broken Freedom Song
TTITLE3=Casey's Last Ride
TTITLE4=Billy Dee
TTITLE5=Easter Island
TTITLE6=For The Good Times
TTITLE7=Help Me Make It Through The Night
TTITLE8=Jody and The Kid
TTITLE9=Loving Her Was Easier (Than Anything I'll Ever Do Again)
TTITLE10=Risky Business
TTITLE11=To Beat The Devil
EXTD=
EXTT0=
EXTT1=
EXTT2=
EXTT3=
EXTT4=
EXTT5=
EXTT6=
EXTT7=
EXTT8=
EXTT9=
EXTT10=
EXTT11=
PLAYORDER=
